<svg width="32" height="32" viewBox="0 0 32 32" fill="none" xmlns="http://www.w3.org/2000/svg">
<path d="M10.9067 5.33325H4.00002C3.6464 5.33325 3.30726 5.47372 3.05721 5.72377C2.80716 5.97382 2.66669 6.31296 2.66669 6.66658C2.66669 7.0202 2.80716 7.35934 3.05721 7.60939C3.30726 7.85944 3.6464 7.99991 4.00002 7.99991H10.9067C11.187 8.77212 11.6982 9.4393 12.3709 9.91079C13.0436 10.3823 13.8452 10.6352 14.6667 10.6352C15.4882 10.6352 16.2898 10.3823 16.9625 9.91079C17.6352 9.4393 18.1464 8.77212 18.4267 7.99991H28C28.3536 7.99991 28.6928 7.85944 28.9428 7.60939C29.1929 7.35934 29.3334 7.0202 29.3334 6.66658C29.3334 6.31296 29.1929 5.97382 28.9428 5.72377C28.6928 5.47372 28.3536 5.33325 28 5.33325H18.4267C18.1464 4.56104 17.6352 3.89386 16.9625 3.42237C16.2898 2.95088 15.4882 2.69794 14.6667 2.69794C13.8452 2.69794 13.0436 2.95088 12.3709 3.42237C11.6982 3.89386 11.187 4.56104 10.9067 5.33325ZM16 6.66658C16 6.93029 15.9218 7.18807 15.7753 7.40734C15.6288 7.62661 15.4206 7.7975 15.1769 7.89842C14.9333 7.99933 14.6652 8.02574 14.4066 7.97429C14.1479 7.92285 13.9103 7.79586 13.7239 7.60939C13.5374 7.42292 13.4104 7.18534 13.359 6.9267C13.3075 6.66806 13.3339 6.39997 13.4348 6.15634C13.5358 5.9127 13.7067 5.70446 13.9259 5.55795C14.1452 5.41144 14.403 5.33325 14.6667 5.33325C15.0203 5.33325 15.3594 5.47372 15.6095 5.72377C15.8595 5.97382 16 6.31296 16 6.66658ZM18.9067 14.6666L4.00002 14.6666C3.6464 14.6666 3.30726 14.8071 3.05721 15.0571C2.80716 15.3072 2.66669 15.6463 2.66669 15.9999C2.66669 16.3535 2.80716 16.6927 3.05721 16.9427C3.30726 17.1928 3.6464 17.3332 4.00002 17.3332H18.9067C19.187 18.1054 19.6982 18.7726 20.3709 19.2441C21.0436 19.7156 21.8452 19.9685 22.6667 19.9685C23.4882 19.9685 24.2897 19.7156 24.9625 19.2441C25.6352 18.7726 26.1464 18.1054 26.4267 17.3332H28C28.3536 17.3332 28.6928 17.1928 28.9428 16.9427C29.1929 16.6927 29.3334 16.3535 29.3334 15.9999C29.3334 15.6463 29.1929 15.3072 28.9428 15.0571C28.6928 14.8071 28.3536 14.6666 28 14.6666H26.4267C26.1464 13.8944 25.6352 13.2272 24.9625 12.7557C24.2897 12.2842 23.4882 12.0313 22.6667 12.0313C21.8452 12.0313 21.0436 12.2842 20.3709 12.7557C19.6982 13.2272 19.187 13.8944 18.9067 14.6666ZM24 15.9999C24 16.2636 23.9218 16.5214 23.7753 16.7407C23.6288 16.9599 23.4206 17.1308 23.1769 17.2318C22.9333 17.3327 22.6652 17.3591 22.4066 17.3076C22.1479 17.2562 21.9103 17.1292 21.7239 16.9427C21.5374 16.7563 21.4104 16.5187 21.359 16.26C21.3075 16.0014 21.3339 15.7333 21.4348 15.4897C21.5358 15.246 21.7067 15.0378 21.9259 14.8913C22.1452 14.7448 22.403 14.6666 22.6667 14.6666C23.0203 14.6666 23.3594 14.8071 23.6095 15.0571C23.8595 15.3072 24 15.6463 24 15.9999ZM8.24002 23.9999H4.00002C3.6464 23.9999 3.30726 24.1404 3.05721 24.3904C2.80716 24.6405 2.66669 24.9796 2.66669 25.3332C2.66669 25.6869 2.80716 26.026 3.05721 26.2761C3.30726 26.5261 3.6464 26.6666 4.00002 26.6666H8.24002C8.52029 27.4388 9.03153 28.106 9.70424 28.5775C10.377 29.0489 11.1785 29.3019 12 29.3019C12.8215 29.3019 13.6231 29.0489 14.2958 28.5775C14.9685 28.106 15.4797 27.4388 15.76 26.6666H28C28.3536 26.6666 28.6928 26.5261 28.9428 26.2761C29.1929 26.026 29.3334 25.6869 29.3334 25.3332C29.3334 24.9796 29.1929 24.6405 28.9428 24.3904C28.6928 24.1404 28.3536 23.9999 28 23.9999H15.76C15.4797 23.2277 14.9685 22.5605 14.2958 22.089C13.6231 21.6175 12.8215 21.3646 12 21.3646C11.1785 21.3646 10.377 21.6175 9.70424 22.089C9.03153 22.5605 8.52029 23.2277 8.24002 23.9999ZM13.3334 25.3332C13.3334 25.597 13.2552 25.8547 13.1086 26.074C12.9621 26.2933 12.7539 26.4642 12.5103 26.5651C12.2666 26.666 11.9985 26.6924 11.7399 26.641C11.4813 26.5895 11.2437 26.4625 11.0572 26.2761C10.8707 26.0896 10.7438 25.852 10.6923 25.5934C10.6409 25.3347 10.6673 25.0666 10.7682 24.823C10.8691 24.5794 11.04 24.3711 11.2593 24.2246C11.4785 24.0781 11.7363 23.9999 12 23.9999C12.3536 23.9999 12.6928 24.1404 12.9428 24.3904C13.1929 24.6405 13.3334 24.9796 13.3334 25.3332Z" fill="#75839D"/>
</svg>
