<svg width="32" height="32" viewBox="0 0 32 32" fill="none" xmlns="http://www.w3.org/2000/svg">
<path d="M25.3333 21.3334H24V9.33337C24 8.53337 23.4667 8.00004 22.6667 8.00004H10.6667V6.66671C10.6667 5.86671 10.1333 5.33337 9.33334 5.33337C8.53334 5.33337 8.00001 5.86671 8.00001 6.66671V8.00004H6.66668C5.86668 8.00004 5.33334 8.53337 5.33334 9.33337C5.33334 10.1334 5.86668 10.6667 6.66668 10.6667H8.00001V22.6667C8.00001 23.4667 8.53334 24 9.33334 24H21.3333V25.3334C21.3333 26.1334 21.8667 26.6667 22.6667 26.6667C23.4667 26.6667 24 26.1334 24 25.3334V24H25.3333C26.1333 24 26.6667 23.4667 26.6667 22.6667C26.6667 21.8667 26.1333 21.3334 25.3333 21.3334ZM21.3333 21.3334H10.6667V10.6667H21.3333V21.3334Z" fill="#75839D"/>
</svg>
