<svg width="1178" height="16" viewBox="0 0 1178 16" fill="none" xmlns="http://www.w3.org/2000/svg">
<rect y="6.2246" width="1178" height="3.11229" rx="1.55508" fill="#C4C4C4"/>
<mask id="path-2-inside-1_1514_5711" fill="white">
<path fill-rule="evenodd" clip-rule="evenodd" d="M684.556 15.5614C688.882 15.5614 692.389 12.0779 692.389 7.78071C692.389 3.48354 688.882 0 684.556 0C681.344 0 678.584 1.92042 677.375 4.66842H3.11229C1.39342 4.66842 0 6.06183 0 7.7807C0 9.49957 1.39344 10.893 3.11231 10.893H677.375C678.584 13.641 681.344 15.5614 684.556 15.5614Z"/>
</mask>
<path fill-rule="evenodd" clip-rule="evenodd" d="M684.556 15.5614C688.882 15.5614 692.389 12.0779 692.389 7.78071C692.389 3.48354 688.882 0 684.556 0C681.344 0 678.584 1.92042 677.375 4.66842H3.11229C1.39342 4.66842 0 6.06183 0 7.7807C0 9.49957 1.39344 10.893 3.11231 10.893H677.375C678.584 13.641 681.344 15.5614 684.556 15.5614Z" fill="white"/>
<path d="M677.375 4.66842V15.5614H684.484L687.347 9.05404L677.375 4.66842ZM677.375 10.893L687.347 6.50738L684.484 -1.14519e-05H677.375V10.893ZM681.496 7.78071C681.496 5.99386 682.934 4.66843 684.556 4.66843V26.4544C694.83 26.4544 703.282 18.1619 703.282 7.78071H681.496ZM684.556 10.893C682.934 10.893 681.496 9.56756 681.496 7.78071H703.282C703.282 -2.60048 694.83 -10.893 684.556 -10.893V10.893ZM687.347 9.05404C686.866 10.1471 685.787 10.893 684.556 10.893V-10.893C676.902 -10.893 670.302 -6.30621 667.404 0.282795L687.347 9.05404ZM3.11229 15.5614H677.375V-6.22458H3.11229V15.5614ZM10.893 7.7807C10.893 12.0779 7.40945 15.5614 3.11229 15.5614V-6.22458C-4.62261 -6.22458 -10.893 0.045791 -10.893 7.7807H10.893ZM3.11231 -1.14519e-05C7.40937 -1.14519e-05 10.893 3.48343 10.893 7.7807H-10.893C-10.893 15.5157 -4.62249 21.786 3.11231 21.786V-1.14519e-05ZM677.375 -1.14519e-05L3.11231 -1.14519e-05V21.786H677.375V-1.14519e-05ZM684.556 4.66843C685.787 4.66843 686.866 5.4143 687.347 6.50738L667.404 15.2786C670.302 21.8677 676.902 26.4544 684.556 26.4544V4.66843Z" fill="#0061FF" mask="url(#path-2-inside-1_1514_5711)"/>
</svg>
