<svg width="32" height="32" viewBox="0 0 32 32" fill="none" xmlns="http://www.w3.org/2000/svg">
<path d="M25.8665 17.3333C25.5998 17.3333 25.3332 17.2 24.9332 17.2C24.3998 17.0666 23.7332 16.9333 23.1998 16.6666C21.8665 16.2666 20.5332 16.8 19.8665 18L19.5998 18.6666C16.9332 17.2 14.7998 15.0666 13.3332 12.4L13.9998 12C15.1998 11.4666 15.8665 9.99996 15.3332 8.66663C15.0665 8.13329 14.9332 7.46663 14.7998 6.93329C14.7998 6.66663 14.6665 6.39996 14.6665 5.99996C14.3998 4.13329 12.6665 2.66663 10.6665 2.66663H6.6665C5.4665 2.66663 4.39983 3.19996 3.73316 3.99996C2.93316 4.93329 2.6665 6.13329 2.79983 7.33329C3.4665 12.9333 5.99983 18 9.99983 22C13.9998 26 19.1998 28.5333 24.6665 29.2C25.8665 29.3333 26.9332 28.9333 27.8665 28.2666C28.6665 27.4666 29.1998 26.4 29.1998 25.3333V21.3333C29.1998 19.2 27.8665 17.6 25.8665 17.3333Z" fill="white"/>
</svg>
