<svg width="20" height="20" viewBox="0 0 20 20" fill="none" xmlns="http://www.w3.org/2000/svg">
<path d="M11.9665 11.8583C11.4094 12.3074 10.7154 12.5524 9.99984 12.5524C9.28426 12.5524 8.59024 12.3074 8.03317 11.8583C7.86299 11.7168 7.64359 11.6488 7.42324 11.6691C7.20288 11.6894 6.99962 11.7964 6.85817 11.9666C6.71673 12.1368 6.64867 12.3562 6.66899 12.5766C6.68931 12.7969 6.79633 13.0002 6.96651 13.1416C7.81762 13.8521 8.89114 14.2413 9.99984 14.2413C11.1085 14.2413 12.1821 13.8521 13.0332 13.1416C13.2034 13.0002 13.3104 12.7969 13.3307 12.5766C13.351 12.3562 13.283 12.1368 13.1415 11.9666C13.0715 11.8824 12.9855 11.8127 12.8886 11.7617C12.7916 11.7106 12.6856 11.6792 12.5764 11.6691C12.3561 11.6488 12.1367 11.7168 11.9665 11.8583ZM7.49984 9.16663C7.66466 9.16663 7.82578 9.11775 7.96282 9.02618C8.09986 8.93462 8.20667 8.80447 8.26974 8.6522C8.33281 8.49992 8.34932 8.33237 8.31716 8.17072C8.28501 8.00907 8.20564 7.86058 8.0891 7.74404C7.97255 7.62749 7.82407 7.54813 7.66242 7.51597C7.50076 7.48382 7.33321 7.50032 7.18094 7.56339C7.02867 7.62647 6.89852 7.73328 6.80695 7.87032C6.71538 8.00736 6.66651 8.16848 6.66651 8.33329C6.66651 8.55431 6.7543 8.76627 6.91059 8.92255C7.06687 9.07883 7.27883 9.16663 7.49984 9.16663ZM12.4998 7.49996C12.335 7.49996 12.1739 7.54883 12.0369 7.6404C11.8998 7.73197 11.793 7.86212 11.7299 8.01439C11.6669 8.16666 11.6504 8.33422 11.6825 8.49587C11.7147 8.65752 11.794 8.806 11.9106 8.92255C12.0271 9.03909 12.1756 9.11846 12.3373 9.15061C12.4989 9.18277 12.6665 9.16627 12.8187 9.10319C12.971 9.04012 13.1012 8.93331 13.1927 8.79627C13.2843 8.65923 13.3332 8.49811 13.3332 8.33329C13.3332 8.11228 13.2454 7.90032 13.0891 7.74404C12.9328 7.58776 12.7209 7.49996 12.4998 7.49996ZM9.99984 1.66663C8.35166 1.66663 6.7405 2.15537 5.37009 3.07105C3.99968 3.98672 2.93158 5.28821 2.30084 6.81093C1.67011 8.33365 1.50509 10.0092 1.82663 11.6257C2.14817 13.2422 2.94185 14.7271 4.10728 15.8925C5.27272 17.058 6.75758 17.8516 8.37409 18.1732C9.9906 18.4947 11.6662 18.3297 13.1889 17.699C14.7116 17.0682 16.0131 16.0001 16.9288 14.6297C17.8444 13.2593 18.3332 11.6481 18.3332 9.99996C18.3332 8.90561 18.1176 7.82198 17.6988 6.81093C17.28 5.79988 16.6662 4.88122 15.8924 4.1074C15.1186 3.33358 14.1999 2.71975 13.1889 2.30096C12.1778 1.88217 11.0942 1.66663 9.99984 1.66663ZM9.99984 16.6666C8.6813 16.6666 7.39237 16.2756 6.29604 15.5431C5.19971 14.8105 4.34523 13.7694 3.84064 12.5512C3.33606 11.333 3.20404 9.99256 3.46127 8.69936C3.71851 7.40615 4.35345 6.21826 5.2858 5.28591C6.21815 4.35356 7.40603 3.71863 8.69924 3.46139C9.99245 3.20416 11.3329 3.33618 12.5511 3.84076C13.7692 4.34535 14.8104 5.19983 15.543 6.29616C16.2755 7.39249 16.6665 8.68142 16.6665 9.99996C16.6665 11.7681 15.9641 13.4638 14.7139 14.714C13.4636 15.9642 11.768 16.6666 9.99984 16.6666Z" fill="#75839D"/>
</svg>
