<svg width="28" height="28" viewBox="0 0 28 28" fill="none" xmlns="http://www.w3.org/2000/svg">
<path d="M25.0832 8.28329C24.7332 8.04995 24.2666 8.04995 23.9166 8.28329L19.8332 10.3833C19.7166 8.51662 18.1999 6.99995 16.3333 6.99995H5.83325C3.84992 6.99995 2.33326 8.51662 2.33326 10.5V17.4999C2.33326 19.4833 3.84992 20.9999 5.83325 20.9999H16.3333C18.1999 20.9999 19.7166 19.4833 19.8332 17.6166L24.0332 19.7166C24.6166 19.9499 25.3166 19.7166 25.5499 19.2499C25.6666 19.0166 25.6666 18.8999 25.6666 18.6666V9.33329C25.6666 8.98329 25.4332 8.51662 25.0832 8.28329Z" fill="white"/>
</svg>
