<svg width="38" height="38" viewBox="0 0 38 38" fill="none" xmlns="http://www.w3.org/2000/svg">
<path d="M16.435 20.7099C16.2446 20.6287 16.0402 20.5857 15.8333 20.5832H9.49995C9.08002 20.5832 8.67729 20.75 8.38036 21.0469C8.08343 21.3439 7.91661 21.7466 7.91661 22.1665C7.91661 22.5865 8.08343 22.9892 8.38036 23.2861C8.67729 23.5831 9.08002 23.7499 9.49995 23.7499H12.0175L3.62578 32.1257C3.47737 32.2729 3.35958 32.448 3.2792 32.641C3.19881 32.8339 3.15743 33.0409 3.15743 33.2499C3.15743 33.4589 3.19881 33.6659 3.2792 33.8588C3.35958 34.0517 3.47737 34.2269 3.62578 34.374C3.77297 34.5224 3.94809 34.6402 4.14103 34.7206C4.33397 34.801 4.54092 34.8424 4.74994 34.8424C4.95896 34.8424 5.16591 34.801 5.35886 34.7206C5.5518 34.6402 5.72692 34.5224 5.87411 34.374L14.25 25.9824V28.4999C14.25 28.9198 14.4168 29.3225 14.7137 29.6195C15.0106 29.9164 15.4134 30.0832 15.8333 30.0832C16.2532 30.0832 16.6559 29.9164 16.9529 29.6195C17.2498 29.3225 17.4166 28.9198 17.4166 28.4999V22.1665C17.4141 21.9596 17.3711 21.7552 17.29 21.5649C17.1293 21.178 16.8218 20.8705 16.435 20.7099ZM15.8333 7.91652C15.4134 7.91652 15.0106 8.08334 14.7137 8.38027C14.4168 8.6772 14.25 9.07993 14.25 9.49986V12.0174L5.87411 3.62568C5.72648 3.47806 5.55122 3.36095 5.35834 3.28106C5.16545 3.20116 4.95872 3.16004 4.74994 3.16004C4.54117 3.16004 4.33443 3.20116 4.14155 3.28106C3.94866 3.36095 3.7734 3.47806 3.62578 3.62568C3.32763 3.92383 3.16013 4.32821 3.16013 4.74985C3.16013 5.1715 3.32763 5.57587 3.62578 5.87402L12.0175 14.2499H9.49995C9.08002 14.2499 8.67729 14.4167 8.38036 14.7136C8.08343 15.0105 7.91661 15.4133 7.91661 15.8332C7.91661 16.2531 8.08343 16.6558 8.38036 16.9528C8.67729 17.2497 9.08002 17.4165 9.49995 17.4165H15.8333C16.0402 17.414 16.2446 17.371 16.435 17.2899C16.8218 17.1292 17.1293 16.8217 17.29 16.4349C17.3711 16.2445 17.4141 16.0401 17.4166 15.8332V9.49986C17.4166 9.07993 17.2498 8.6772 16.9529 8.38027C16.6559 8.08334 16.2532 7.91652 15.8333 7.91652ZM21.565 17.2899C21.7553 17.371 21.9597 17.414 22.1666 17.4165H28.5C28.9199 17.4165 29.3226 17.2497 29.6196 16.9528C29.9165 16.6558 30.0833 16.2531 30.0833 15.8332C30.0833 15.4133 29.9165 15.0105 29.6196 14.7136C29.3226 14.4167 28.9199 14.2499 28.5 14.2499H25.9825L34.3741 5.87402C34.6723 5.57587 34.8398 5.1715 34.8398 4.74985C34.8398 4.32821 34.6723 3.92383 34.3741 3.62568C34.076 3.32754 33.6716 3.16004 33.25 3.16004C32.8283 3.16004 32.424 3.32754 32.1258 3.62568L23.75 12.0174V9.49986C23.75 9.07993 23.5831 8.6772 23.2862 8.38027C22.9893 8.08334 22.5866 7.91652 22.1666 7.91652C21.7467 7.91652 21.344 8.08334 21.047 8.38027C20.7501 8.6772 20.5833 9.07993 20.5833 9.49986V15.8332C20.5858 16.0401 20.6288 16.2445 20.71 16.4349C20.8706 16.8217 21.1781 17.1292 21.565 17.2899ZM25.9825 23.7499H28.5C28.9199 23.7499 29.3226 23.5831 29.6196 23.2861C29.9165 22.9892 30.0833 22.5865 30.0833 22.1665C30.0833 21.7466 29.9165 21.3439 29.6196 21.0469C29.3226 20.75 28.9199 20.5832 28.5 20.5832H22.1666C21.9597 20.5857 21.7553 20.6287 21.565 20.7099C21.1781 20.8705 20.8706 21.178 20.71 21.5649C20.6288 21.7552 20.5858 21.9596 20.5833 22.1665V28.4999C20.5833 28.9198 20.7501 29.3225 21.047 29.6195C21.344 29.9164 21.7467 30.0832 22.1666 30.0832C22.5866 30.0832 22.9893 29.9164 23.2862 29.6195C23.5831 29.3225 23.75 28.9198 23.75 28.4999V25.9824L32.1258 34.374C32.273 34.5224 32.4481 34.6402 32.6411 34.7206C32.834 34.801 33.041 34.8424 33.25 34.8424C33.459 34.8424 33.6659 34.801 33.8589 34.7206C34.0518 34.6402 34.2269 34.5224 34.3741 34.374C34.5225 34.2269 34.6403 34.0517 34.7207 33.8588C34.8011 33.6659 34.8425 33.4589 34.8425 33.2499C34.8425 33.0409 34.8011 32.8339 34.7207 32.641C34.6403 32.448 34.5225 32.2729 34.3741 32.1257L25.9825 23.7499Z" fill="white"/>
</svg>
