<svg width="38" height="38" viewBox="0 0 38 38" fill="none" xmlns="http://www.w3.org/2000/svg">
<path d="M19.0001 20.5833C19.8746 20.5833 20.5835 19.8745 20.5835 19C20.5835 18.1256 19.8746 17.4167 19.0001 17.4167C18.1257 17.4167 17.4168 18.1256 17.4168 19C17.4168 19.8745 18.1257 20.5833 19.0001 20.5833Z" fill="white" stroke="white" stroke-width="3.11015" stroke-linecap="round" stroke-linejoin="round"/>
<path d="M19.0001 9.50001C19.8746 9.50001 20.5835 8.79112 20.5835 7.91667C20.5835 7.04222 19.8746 6.33334 19.0001 6.33334C18.1257 6.33334 17.4168 7.04222 17.4168 7.91667C17.4168 8.79112 18.1257 9.50001 19.0001 9.50001Z" stroke="white" stroke-width="3.11015" stroke-linecap="round" stroke-linejoin="round"/>
<path d="M19.0001 31.6667C19.8746 31.6667 20.5835 30.9578 20.5835 30.0833C20.5835 29.2089 19.8746 28.5 19.0001 28.5C18.1257 28.5 17.4168 29.2089 17.4168 30.0833C17.4168 30.9578 18.1257 31.6667 19.0001 31.6667Z" stroke="white" stroke-width="3.11015" stroke-linecap="round" stroke-linejoin="round"/>
</svg>
