<svg width="231" height="40" viewBox="0 0 231 40" fill="none" xmlns="http://www.w3.org/2000/svg">
<path fill-rule="evenodd" clip-rule="evenodd" d="M29 27.0001H9C5.1 27.0001 2 23.9001 2 20.0001C2 16.1001 5.1 13.0001 9 13.0001H29C32.9 13.0001 36 16.1001 36 20.0001C36 23.9001 32.9 27.0001 29 27.0001Z" fill="#A6C8FF"/>
<g filter="url(#filter0_dd_1514_4261)">
<path fill-rule="evenodd" clip-rule="evenodd" d="M29 30C34.5228 30 39 25.5228 39 20C39 14.4772 34.5228 10 29 10C23.4772 10 19 14.4772 19 20C19 25.5228 23.4772 30 29 30Z" fill="#0061FF"/>
</g>
<path d="M33.334 20.0758L26.4876 24.0286L26.4876 16.123L33.334 20.0758Z" fill="#D9D9D9"/>
<path d="M74.5999 20.8666C74.6332 20.5889 74.6554 20.3 74.6554 20C74.6554 19.7 74.6332 19.4222 74.5999 19.1333L76.4665 17.6666C76.6332 17.5333 76.6777 17.3 76.5665 17.1L74.7888 14.0333C74.6888 13.8444 74.4443 13.7666 74.2554 13.8444L72.0443 14.7333C71.5888 14.3777 71.0888 14.0889 70.5443 13.8666L70.211 11.5111C70.1888 11.3 69.9999 11.1444 69.7777 11.1444H66.2221C65.9999 11.1444 65.8221 11.3 65.7888 11.5111L65.4554 13.8666C64.9221 14.0889 64.4221 14.3889 63.9554 14.7333L61.7443 13.8444C61.5443 13.7666 61.311 13.8444 61.211 14.0333L59.4332 17.1C59.3221 17.2889 59.3777 17.5333 59.5332 17.6666L61.3999 19.1333C61.3665 19.4111 61.3443 19.7111 61.3443 20C61.3443 20.2889 61.3665 20.5777 61.3999 20.8666L59.5332 22.3333C59.3665 22.4666 59.3221 22.7 59.4332 22.9L61.211 25.9666C61.311 26.1555 61.5554 26.2333 61.7443 26.1555L63.9554 25.2666C64.411 25.6222 64.911 25.9111 65.4554 26.1333L65.7888 28.4889C65.811 28.7 65.9999 28.8555 66.2221 28.8555H69.7777C69.9999 28.8555 70.1777 28.7 70.211 28.4889L70.5443 26.1333C71.0777 25.9111 71.5777 25.6111 72.0443 25.2666L74.2554 26.1555C74.4554 26.2333 74.6888 26.1555 74.7888 25.9666L76.5665 22.9C76.6665 22.7111 76.6221 22.4666 76.4665 22.3333L74.5999 20.8666ZM67.9999 23.1C66.2888 23.1 64.8888 21.7111 64.8888 19.9889C64.8888 18.2777 66.2777 16.8777 67.9999 16.8777C69.711 16.8777 71.111 18.2666 71.111 19.9889C71.111 21.7 69.7221 23.1 67.9999 23.1Z" fill="white"/>
<path d="M107.222 12.2222C105.989 12.2222 105 13.2222 105 14.4445V25.5556C105 26.7778 105.989 27.7778 107.222 27.7778H122.778C124 27.7778 125 26.7778 125 25.5556V14.4445C125 13.2222 124 12.2222 122.778 12.2222H107.222ZM113.889 18.8889H112.222V18.3333H110V21.6667H112.222V21.1111H113.889V22.2222C113.889 22.8333 113.389 23.3333 112.778 23.3333H109.444C108.833 23.3333 108.333 22.8333 108.333 22.2222V17.7778C108.333 17.1667 108.833 16.6667 109.444 16.6667H112.778C113.389 16.6667 113.889 17.1667 113.889 17.7778V18.8889ZM121.667 18.8889H120V18.3333H117.778V21.6667H120V21.1111H121.667V22.2222C121.667 22.8333 121.167 23.3333 120.556 23.3333H117.222C116.611 23.3333 116.111 22.8333 116.111 22.2222V17.7778C116.111 17.1667 116.611 16.6667 117.222 16.6667H120.556C121.167 16.6667 121.667 17.1667 121.667 17.7778V18.8889Z" fill="white"/>
<path d="M171 12H155C153.9 12 153 12.9 153 14V26C153 27.1 153.9 28 155 28H171C172.1 28 173 27.1 173 26V14C173 12.9 172.1 12 171 12ZM171 26H155V14H171V26ZM157 18H159V20H157V18ZM157 22H165V24H157V22ZM167 22H169V24H167V22ZM161 18H169V20H161V18Z" fill="white"/>
<path d="M207 10H202C201.735 10 201.48 10.1054 201.293 10.2929C201.105 10.4804 201 10.7348 201 11V16C201 16.2652 201.105 16.5196 201.293 16.7071C201.48 16.8946 201.735 17 202 17C202.265 17 202.52 16.8946 202.707 16.7071C202.895 16.5196 203 16.2652 203 16V12H207C207.265 12 207.52 11.8946 207.707 11.7071C207.895 11.5196 208 11.2652 208 11C208 10.7348 207.895 10.4804 207.707 10.2929C207.52 10.1054 207.265 10 207 10ZM207 28H203V24C203 23.7348 202.895 23.4804 202.707 23.2929C202.52 23.1054 202.265 23 202 23C201.735 23 201.48 23.1054 201.293 23.2929C201.105 23.4804 201 23.7348 201 24V29C201 29.2652 201.105 29.5196 201.293 29.7071C201.48 29.8946 201.735 30 202 30H207C207.265 30 207.52 29.8946 207.707 29.7071C207.895 29.5196 208 29.2652 208 29C208 28.7348 207.895 28.4804 207.707 28.2929C207.52 28.1054 207.265 28 207 28ZM220 10H215C214.735 10 214.48 10.1054 214.293 10.2929C214.105 10.4804 214 10.7348 214 11C214 11.2652 214.105 11.5196 214.293 11.7071C214.48 11.8946 214.735 12 215 12H219V16C219 16.2652 219.105 16.5196 219.293 16.7071C219.48 16.8946 219.735 17 220 17C220.265 17 220.52 16.8946 220.707 16.7071C220.895 16.5196 221 16.2652 221 16V11C221 10.7348 220.895 10.4804 220.707 10.2929C220.52 10.1054 220.265 10 220 10ZM220 23C219.735 23 219.48 23.1054 219.293 23.2929C219.105 23.4804 219 23.7348 219 24V28H215C214.735 28 214.48 28.1054 214.293 28.2929C214.105 28.4804 214 28.7348 214 29C214 29.2652 214.105 29.5196 214.293 29.7071C214.48 29.8946 214.735 30 215 30H220C220.265 30 220.52 29.8946 220.707 29.7071C220.895 29.5196 221 29.2652 221 29V24C221 23.7348 220.895 23.4804 220.707 23.2929C220.52 23.1054 220.265 23 220 23Z" fill="white"/>
<defs>
<filter id="filter0_dd_1514_4261" x="17.0753" y="9.03767" width="23.8493" height="23.8493" filterUnits="userSpaceOnUse" color-interpolation-filters="sRGB">
<feFlood flood-opacity="0" result="BackgroundImageFix"/>
<feColorMatrix in="SourceAlpha" type="matrix" values="0 0 0 0 0 0 0 0 0 0 0 0 0 0 0 0 0 0 127 0" result="hardAlpha"/>
<feOffset dy="0.962328"/>
<feGaussianBlur stdDeviation="0.962328"/>
<feColorMatrix type="matrix" values="0 0 0 0 0 0 0 0 0 0 0 0 0 0 0 0 0 0 0.2 0"/>
<feBlend mode="normal" in2="BackgroundImageFix" result="effect1_dropShadow_1514_4261"/>
<feColorMatrix in="SourceAlpha" type="matrix" values="0 0 0 0 0 0 0 0 0 0 0 0 0 0 0 0 0 0 127 0" result="hardAlpha"/>
<feOffset dy="0.0962328"/>
<feGaussianBlur stdDeviation="0.144349"/>
<feColorMatrix type="matrix" values="0 0 0 0 0 0 0 0 0 0 0 0 0 0 0 0 0 0 0.1 0"/>
<feBlend mode="normal" in2="effect1_dropShadow_1514_4261" result="effect2_dropShadow_1514_4261"/>
<feBlend mode="normal" in="SourceGraphic" in2="effect2_dropShadow_1514_4261" result="shape"/>
</filter>
</defs>
</svg>
