<svg width="38" height="38" viewBox="0 0 38 38" fill="none" xmlns="http://www.w3.org/2000/svg">
<path d="M26.9163 17.4166H14.8988L20.1238 12.2074C20.422 11.9093 20.5895 11.5049 20.5895 11.0832C20.5895 10.6616 20.422 10.2572 20.1238 9.95908C19.8257 9.66093 19.4213 9.49344 18.9997 9.49344C18.578 9.49344 18.1737 9.66093 17.8755 9.95908L9.95885 17.8757C9.8147 18.0263 9.7017 18.2039 9.62635 18.3982C9.46798 18.7837 9.46798 19.2161 9.62635 19.6016C9.7017 19.7959 9.8147 19.9735 9.95885 20.1241L17.8755 28.0408C18.0227 28.1892 18.1978 28.3069 18.3908 28.3873C18.5837 28.4677 18.7907 28.5091 18.9997 28.5091C19.2087 28.5091 19.4156 28.4677 19.6086 28.3873C19.8015 28.3069 19.9767 28.1892 20.1238 28.0408C20.2723 27.8936 20.39 27.7184 20.4704 27.5255C20.5508 27.3326 20.5922 27.1256 20.5922 26.9166C20.5922 26.7076 20.5508 26.5006 20.4704 26.3077C20.39 26.1147 20.2723 25.9396 20.1238 25.7924L14.8988 20.5833H26.9163C27.3363 20.5833 27.739 20.4164 28.0359 20.1195C28.3329 19.8226 28.4997 19.4198 28.4997 18.9999C28.4997 18.58 28.3329 18.1773 28.0359 17.8803C27.739 17.5834 27.3363 17.4166 26.9163 17.4166Z" fill="white"/>
</svg>
