<svg width="38" height="38" viewBox="0 0 38 38" fill="none" xmlns="http://www.w3.org/2000/svg">
<path d="M31.6659 6.33337H6.33254C4.59088 6.33337 3.16588 7.75837 3.16588 9.50003V28.5C3.16588 30.2417 4.59088 31.6667 6.33254 31.6667H31.6659C33.4075 31.6667 34.8325 30.2417 34.8325 28.5V9.50003C34.8325 7.75837 33.4075 6.33337 31.6659 6.33337ZM31.6659 28.5H6.33254V9.50003H31.6659V28.5ZM9.49921 15.8334H12.6659V19H9.49921V15.8334ZM9.49921 22.1667H22.1659V25.3334H9.49921V22.1667ZM25.3325 22.1667H28.4992V25.3334H25.3325V22.1667ZM15.8325 15.8334H28.4992V19H15.8325V15.8334Z" fill="white"/>
</svg>
