<svg width="20" height="20" viewBox="0 0 20 20" fill="none" xmlns="http://www.w3.org/2000/svg">
<path d="M9.99992 12.5C11.8333 12.5 13.3333 11 13.3333 9.16667V4.16667C13.3333 2.33334 11.8333 0.833336 9.99992 0.833336C8.16658 0.833336 6.66659 2.25 6.66659 4.16667V9.16667C6.66659 11.0833 8.16658 12.5 9.99992 12.5ZM16.6666 9.16667C16.6666 8.66667 16.3333 8.33333 15.8333 8.33333C15.3333 8.33333 14.9999 8.66667 14.9999 9.16667C14.9999 11.9167 12.7499 14.1667 9.99992 14.1667C7.24992 14.1667 4.99992 11.9167 4.99992 9.16667C4.99992 8.66667 4.66659 8.33333 4.16659 8.33333C3.66659 8.33333 3.33325 8.66667 3.33325 9.16667C3.33325 12.5 5.83325 15.3333 9.16658 15.75V17.5H7.49992C6.99992 17.5 6.66659 17.8333 6.66659 18.3333C6.66659 18.8333 6.99992 19.1667 7.49992 19.1667H12.4999C12.9999 19.1667 13.3333 18.8333 13.3333 18.3333C13.3333 17.8333 12.9999 17.5 12.4999 17.5H10.8333V15.75C14.1666 15.3333 16.6666 12.5 16.6666 9.16667Z" fill="#5F6C86"/>
</svg>
