<svg width="61" height="38" viewBox="0 0 61 38" fill="none" xmlns="http://www.w3.org/2000/svg">
<path fill-rule="evenodd" clip-rule="evenodd" d="M42.3129 28.1496H10.97C4.85814 28.1496 0 23.2915 0 17.1796C0 11.0678 4.85814 6.20962 10.97 6.20962H42.3129C48.4247 6.20962 53.2829 11.0678 53.2829 17.1796C53.2829 23.2915 48.4247 28.1496 42.3129 28.1496Z" fill="#A6C8FF"/>
<g filter="url(#filter0_dd_1514_5724)">
<path fill-rule="evenodd" clip-rule="evenodd" d="M42.3121 32.851C50.9672 32.851 57.9836 25.8346 57.9836 17.1795C57.9836 8.52444 50.9672 1.5081 42.3121 1.5081C33.657 1.5081 26.6407 8.52444 26.6407 17.1795C26.6407 25.8346 33.657 32.851 42.3121 32.851Z" fill="#0061FF"/>
</g>
<path d="M49.1047 17.2983L38.3754 23.4928L38.3754 11.1037L49.1047 17.2983Z" fill="#D9D9D9"/>
<defs>
<filter id="filter0_dd_1514_5724" x="23.6245" y="-2.16242e-06" width="37.3753" height="37.3753" filterUnits="userSpaceOnUse" color-interpolation-filters="sRGB">
<feFlood flood-opacity="0" result="BackgroundImageFix"/>
<feColorMatrix in="SourceAlpha" type="matrix" values="0 0 0 0 0 0 0 0 0 0 0 0 0 0 0 0 0 0 127 0" result="hardAlpha"/>
<feOffset dy="1.49649"/>
<feGaussianBlur stdDeviation="1.49649"/>
<feColorMatrix type="matrix" values="0 0 0 0 0 0 0 0 0 0 0 0 0 0 0 0 0 0 0.2 0"/>
<feBlend mode="normal" in2="BackgroundImageFix" result="effect1_dropShadow_1514_5724"/>
<feColorMatrix in="SourceAlpha" type="matrix" values="0 0 0 0 0 0 0 0 0 0 0 0 0 0 0 0 0 0 127 0" result="hardAlpha"/>
<feOffset dy="0.149649"/>
<feGaussianBlur stdDeviation="0.224474"/>
<feColorMatrix type="matrix" values="0 0 0 0 0 0 0 0 0 0 0 0 0 0 0 0 0 0 0.1 0"/>
<feBlend mode="normal" in2="effect1_dropShadow_1514_5724" result="effect2_dropShadow_1514_5724"/>
<feBlend mode="normal" in="SourceGraphic" in2="effect2_dropShadow_1514_5724" result="shape"/>
</filter>
</defs>
</svg>
