<svg width="32" height="32" viewBox="0 0 32 32" fill="none" xmlns="http://www.w3.org/2000/svg">
<path d="M9.89318 20.7199C9.64484 20.9697 9.50545 21.3076 9.50545 21.6599C9.50545 22.0121 9.64484 22.35 9.89318 22.5999C10.0171 22.7248 10.1646 22.824 10.3271 22.8917C10.4896 22.9594 10.6638 22.9943 10.8398 22.9943C11.0159 22.9943 11.1901 22.9594 11.3526 22.8917C11.5151 22.824 11.6626 22.7248 11.7865 22.5999C12.0348 22.35 12.1742 22.0121 12.1742 21.6599C12.1742 21.3076 12.0348 20.9697 11.7865 20.7199C11.6626 20.5949 11.5151 20.4957 11.3526 20.428C11.1901 20.3603 11.0159 20.3255 10.8398 20.3255C10.6638 20.3255 10.4896 20.3603 10.3271 20.428C10.1646 20.4957 10.0171 20.5949 9.89318 20.7199ZM9.89318 9.39986C9.64484 9.64968 9.50545 9.98761 9.50545 10.3399C9.50545 10.6921 9.64484 11.03 9.89318 11.2799C10.0171 11.4048 10.1646 11.504 10.3271 11.5717C10.4896 11.6394 10.6638 11.6743 10.8398 11.6743C11.0159 11.6743 11.1901 11.6394 11.3526 11.5717C11.5151 11.504 11.6626 11.4048 11.7865 11.2799C12.0348 11.03 12.1742 10.6921 12.1742 10.3399C12.1742 9.98761 12.0348 9.64968 11.7865 9.39986C11.6626 9.27489 11.5151 9.1757 11.3526 9.108C11.1901 9.04031 11.0159 9.00546 10.8398 9.00546C10.6638 9.00546 10.4896 9.04031 10.3271 9.108C10.1646 9.1757 10.0171 9.27489 9.89318 9.39986ZM16.4932 22.7332C16.2295 22.7332 15.9717 22.8114 15.7524 22.9579C15.5332 23.1044 15.3623 23.3126 15.2613 23.5563C15.1604 23.7999 15.134 24.068 15.1855 24.3266C15.2369 24.5853 15.3639 24.8229 15.5504 25.0093C15.7368 25.1958 15.9744 25.3228 16.2331 25.3742C16.4917 25.4257 16.7598 25.3993 17.0034 25.2984C17.2471 25.1974 17.4553 25.0266 17.6018 24.8073C17.7483 24.588 17.8265 24.3302 17.8265 24.0665C17.8356 23.8859 17.8078 23.7053 17.7448 23.5358C17.6819 23.3662 17.5851 23.2113 17.4604 23.0803C17.3356 22.9494 17.1856 22.8451 17.0193 22.774C16.853 22.7029 16.674 22.6663 16.4932 22.6665V22.7332ZM8.49318 14.7332C8.22947 14.7332 7.97168 14.8114 7.75242 14.9579C7.53315 15.1044 7.36225 15.3126 7.26134 15.5563C7.16042 15.7999 7.13402 16.068 7.18546 16.3266C7.23691 16.5853 7.3639 16.8229 7.55037 17.0093C7.73684 17.1958 7.97442 17.3228 8.23306 17.3742C8.4917 17.4257 8.75979 17.3993 9.00342 17.2984C9.24706 17.1974 9.45529 17.0266 9.6018 16.8073C9.74831 16.588 9.82651 16.3302 9.82651 16.0665C9.83555 15.8859 9.80776 15.7053 9.74481 15.5358C9.68186 15.3662 9.58509 15.2113 9.46036 15.0803C9.33564 14.9494 9.18558 14.8451 9.0193 14.774C8.85303 14.7029 8.67403 14.6663 8.49318 14.6665V14.7332ZM16.4932 6.73319C16.2295 6.73319 15.9717 6.81139 15.7524 6.9579C15.5332 7.10441 15.3623 7.31265 15.2613 7.55628C15.1604 7.79992 15.134 8.06801 15.1855 8.32665C15.2369 8.58529 15.3639 8.82286 15.5504 9.00933C15.7368 9.1958 15.9744 9.32279 16.2331 9.37424C16.4917 9.42569 16.7598 9.39928 17.0034 9.29836C17.2471 9.19745 17.4553 9.02655 17.6018 8.80729C17.7483 8.58802 17.8265 8.33023 17.8265 8.06653C17.8356 7.8859 17.8078 7.70533 17.7448 7.53578C17.6819 7.36624 17.5851 7.21128 17.4604 7.08032C17.3356 6.94936 17.1856 6.84514 17.0193 6.774C16.853 6.70287 16.674 6.6663 16.4932 6.66653V6.73319ZM21.2132 9.46653C21.0259 9.65268 20.8981 9.89024 20.846 10.1491C20.794 10.408 20.8199 10.6765 20.9206 10.9205C21.0213 11.1646 21.1922 11.3734 21.4116 11.5202C21.631 11.6671 21.8891 11.7455 22.1532 11.7455C22.4172 11.7455 22.6753 11.6671 22.8948 11.5202C23.1142 11.3734 23.2851 11.1646 23.3858 10.9205C23.4865 10.6765 23.5124 10.408 23.4603 10.1491C23.4082 9.89024 23.2804 9.65268 23.0932 9.46653C22.8523 9.20913 22.5193 9.05762 22.1669 9.04513C21.8146 9.03263 21.4717 9.16018 21.2132 9.39986V9.46653ZM29.6132 9.46653C28.3942 7.02959 26.5204 4.98042 24.202 3.54879C21.8835 2.11717 19.2121 1.3597 16.4873 1.36133C13.7625 1.36296 11.092 2.12362 8.77529 3.55801C6.45857 4.99241 4.58725 7.04382 3.37115 9.48221C2.15505 11.9206 1.64227 14.6496 1.8903 17.3631C2.13834 20.0766 3.13738 22.6673 4.7754 24.8448C6.41342 27.0223 8.62565 28.7005 11.164 29.6911C13.7024 30.6817 16.4665 30.9456 19.1465 30.4532C19.8204 30.3264 20.4623 30.0665 21.0347 29.6888C21.607 29.311 22.0983 28.823 22.4798 28.2532C22.891 27.6337 23.1746 26.9386 23.3143 26.2083C23.4539 25.4781 23.4467 24.7273 23.2932 23.9999C23.2092 23.5603 23.1646 23.114 23.1598 22.6665C23.1657 21.3745 23.5469 20.112 24.257 19.0325C24.9671 17.9531 25.9756 17.1033 27.1598 16.5865C27.7983 16.3006 28.3715 15.887 28.8439 15.371C29.3163 14.855 29.6779 14.2477 29.9065 13.5865C30.1377 12.9109 30.2309 12.1957 30.1805 11.4834C30.1301 10.7711 29.9372 10.0762 29.6132 9.43986V9.46653ZM27.3465 12.7199C27.2327 13.0389 27.0561 13.332 26.8271 13.5816C26.5981 13.8312 26.3213 14.0324 26.0132 14.1732C24.3731 14.9073 22.9799 16.0993 22.0007 17.6059C21.0215 19.1125 20.4981 20.8697 20.4932 22.6665C20.4951 23.2933 20.5577 23.9184 20.6798 24.5332C20.7613 24.9089 20.7667 25.2972 20.6957 25.675C20.6247 26.0528 20.4788 26.4126 20.2665 26.7332C20.0869 27.0137 19.8506 27.2536 19.5727 27.4373C19.2949 27.621 18.9816 27.7445 18.6532 27.7999C17.941 27.9337 17.2178 28.0007 16.4932 27.9999C14.8854 28.0006 13.2939 27.6783 11.8131 27.0521C10.3323 26.4258 8.99245 25.5083 7.87313 24.3542C6.7538 23.2 5.87782 21.8327 5.2972 20.3335C4.71658 18.8342 4.44316 17.2335 4.49318 15.6265C4.59666 12.6302 5.81185 9.7798 7.90202 7.63047C9.99218 5.48115 12.8076 4.1869 15.7998 3.99986H16.4798C18.7142 4.00042 20.904 4.62477 22.8027 5.80261C24.7013 6.98045 26.2335 8.66499 27.2265 10.6665C27.5322 11.2998 27.5753 12.0282 27.3465 12.6932V12.7199ZM16.4932 14.6665C16.2295 14.6665 15.9717 14.7447 15.7524 14.8912C15.5332 15.0377 15.3623 15.246 15.2613 15.4896C15.1604 15.7332 15.134 16.0013 15.1855 16.26C15.2369 16.5186 15.3639 16.7562 15.5504 16.9427C15.7368 17.1291 15.9744 17.2561 16.2331 17.3076C16.4917 17.359 16.7598 17.3326 17.0034 17.2317C17.2471 17.1308 17.4553 16.9599 17.6018 16.7406C17.7483 16.5214 17.8265 16.2636 17.8265 15.9999C17.8265 15.6462 17.686 15.3071 17.436 15.057C17.1859 14.807 16.8468 14.6665 16.4932 14.6665Z" fill="#75839D"/>
</svg>
