<svg width="183" height="40" viewBox="0 0 183 40" fill="none" xmlns="http://www.w3.org/2000/svg">
<path d="M26.5999 20.8666C26.6332 20.5889 26.6554 20.3 26.6554 20C26.6554 19.7 26.6332 19.4222 26.5999 19.1333L28.4665 17.6666C28.6332 17.5333 28.6777 17.3 28.5665 17.1L26.7888 14.0333C26.6888 13.8444 26.4443 13.7666 26.2554 13.8444L24.0443 14.7333C23.5888 14.3777 23.0888 14.0889 22.5443 13.8666L22.211 11.5111C22.1888 11.3 21.9999 11.1444 21.7777 11.1444H18.2221C17.9999 11.1444 17.8221 11.3 17.7888 11.5111L17.4554 13.8666C16.9221 14.0889 16.4221 14.3889 15.9554 14.7333L13.7443 13.8444C13.5443 13.7666 13.311 13.8444 13.211 14.0333L11.4332 17.1C11.3221 17.2889 11.3777 17.5333 11.5332 17.6666L13.3999 19.1333C13.3665 19.4111 13.3443 19.7111 13.3443 20C13.3443 20.2889 13.3665 20.5777 13.3999 20.8666L11.5332 22.3333C11.3665 22.4666 11.3221 22.7 11.4332 22.9L13.211 25.9666C13.311 26.1555 13.5554 26.2333 13.7443 26.1555L15.9554 25.2666C16.411 25.6222 16.911 25.9111 17.4554 26.1333L17.7888 28.4889C17.811 28.7 17.9999 28.8555 18.2221 28.8555H21.7777C21.9999 28.8555 22.1777 28.7 22.211 28.4889L22.5443 26.1333C23.0777 25.9111 23.5777 25.6111 24.0443 25.2666L26.2554 26.1555C26.4554 26.2333 26.6888 26.1555 26.7888 25.9666L28.5665 22.9C28.6665 22.7111 28.6221 22.4666 28.4665 22.3333L26.5999 20.8666ZM19.9999 23.1C18.2888 23.1 16.8888 21.7111 16.8888 19.9889C16.8888 18.2777 18.2777 16.8777 19.9999 16.8777C21.711 16.8777 23.111 18.2666 23.111 19.9889C23.111 21.7 21.7221 23.1 19.9999 23.1Z" fill="white"/>
<path d="M59.2222 12.2222C57.9889 12.2222 57 13.2222 57 14.4445V25.5556C57 26.7778 57.9889 27.7778 59.2222 27.7778H74.7778C76 27.7778 77 26.7778 77 25.5556V14.4445C77 13.2222 76 12.2222 74.7778 12.2222H59.2222ZM65.8889 18.8889H64.2222V18.3333H62V21.6667H64.2222V21.1111H65.8889V22.2222C65.8889 22.8333 65.3889 23.3333 64.7778 23.3333H61.4444C60.8333 23.3333 60.3333 22.8333 60.3333 22.2222V17.7778C60.3333 17.1667 60.8333 16.6667 61.4444 16.6667H64.7778C65.3889 16.6667 65.8889 17.1667 65.8889 17.7778V18.8889ZM73.6667 18.8889H72V18.3333H69.7778V21.6667H72V21.1111H73.6667V22.2222C73.6667 22.8333 73.1667 23.3333 72.5556 23.3333H69.2222C68.6111 23.3333 68.1111 22.8333 68.1111 22.2222V17.7778C68.1111 17.1667 68.6111 16.6667 69.2222 16.6667H72.5556C73.1667 16.6667 73.6667 17.1667 73.6667 17.7778V18.8889Z" fill="white"/>
<path d="M123 12H107C105.9 12 105 12.9 105 14V26C105 27.1 105.9 28 107 28H123C124.1 28 125 27.1 125 26V14C125 12.9 124.1 12 123 12ZM123 26H107V14H123V26ZM109 18H111V20H109V18ZM109 22H117V24H109V22ZM119 22H121V24H119V22ZM113 18H121V20H113V18Z" fill="#80B0FF"/>
<path d="M159 10H154C153.735 10 153.48 10.1054 153.293 10.2929C153.105 10.4804 153 10.7348 153 11V16C153 16.2652 153.105 16.5196 153.293 16.7071C153.48 16.8946 153.735 17 154 17C154.265 17 154.52 16.8946 154.707 16.7071C154.895 16.5196 155 16.2652 155 16V12H159C159.265 12 159.52 11.8946 159.707 11.7071C159.895 11.5196 160 11.2652 160 11C160 10.7348 159.895 10.4804 159.707 10.2929C159.52 10.1054 159.265 10 159 10ZM159 28H155V24C155 23.7348 154.895 23.4804 154.707 23.2929C154.52 23.1054 154.265 23 154 23C153.735 23 153.48 23.1054 153.293 23.2929C153.105 23.4804 153 23.7348 153 24V29C153 29.2652 153.105 29.5196 153.293 29.7071C153.48 29.8946 153.735 30 154 30H159C159.265 30 159.52 29.8946 159.707 29.7071C159.895 29.5196 160 29.2652 160 29C160 28.7348 159.895 28.4804 159.707 28.2929C159.52 28.1054 159.265 28 159 28ZM172 10H167C166.735 10 166.48 10.1054 166.293 10.2929C166.105 10.4804 166 10.7348 166 11C166 11.2652 166.105 11.5196 166.293 11.7071C166.48 11.8946 166.735 12 167 12H171V16C171 16.2652 171.105 16.5196 171.293 16.7071C171.48 16.8946 171.735 17 172 17C172.265 17 172.52 16.8946 172.707 16.7071C172.895 16.5196 173 16.2652 173 16V11C173 10.7348 172.895 10.4804 172.707 10.2929C172.52 10.1054 172.265 10 172 10ZM172 23C171.735 23 171.48 23.1054 171.293 23.2929C171.105 23.4804 171 23.7348 171 24V28H167C166.735 28 166.48 28.1054 166.293 28.2929C166.105 28.4804 166 28.7348 166 29C166 29.2652 166.105 29.5196 166.293 29.7071C166.48 29.8946 166.735 30 167 30H172C172.265 30 172.52 29.8946 172.707 29.7071C172.895 29.5196 173 29.2652 173 29V24C173 23.7348 172.895 23.4804 172.707 23.2929C172.52 23.1054 172.265 23 172 23Z" fill="white"/>
</svg>
