<svg width="32" height="32" viewBox="0 0 32 32" fill="none" xmlns="http://www.w3.org/2000/svg">
<path d="M9.33335 16C5.60002 16 2.66669 18.9333 2.66669 22.6666C2.66669 26.4 5.60002 29.3333 9.33335 29.3333C13.0667 29.3333 16 26.4 16 22.6666C16 18.9333 13.0667 16 9.33335 16ZM14.6667 9.33329C11.4667 9.33329 8.53335 11.3333 7.33335 14.2666C12 13.0666 16.6667 16 17.7334 20.5333C18.1334 21.8666 18.1334 23.3333 17.7334 24.6666C21.8667 22.9333 23.7334 18.2666 22 14.2666C20.8 11.3333 17.8667 9.33329 14.6667 9.33329ZM28.2667 7.73329C26.8 4.66663 23.4667 2.66663 20 2.66663C16.5334 2.66663 13.2 4.66663 11.7334 7.73329C17.0667 6.13329 22.6667 9.06663 24.2667 14.2666C24.9334 16.2666 24.9334 18.2666 24.2667 20.2666C28.8 18 30.6667 12.4 28.2667 7.73329Z" fill="#0061FF"/>
</svg>
