<svg width="20" height="20" viewBox="0 0 20 20" fill="none" xmlns="http://www.w3.org/2000/svg">
<path d="M18.0834 16.9167L15 13.8333C17.5834 10.5833 17.0834 5.83333 13.8334 3.25C10.5834 0.666665 5.83337 1.25 3.25004 4.41666C0.666703 7.66666 1.25004 12.4167 4.4167 15C7.1667 17.1667 11.0834 17.1667 13.8334 15L16.9167 18.0833C17.25 18.4167 17.75 18.4167 18.0834 18.0833C18.4167 17.75 18.4167 17.25 18.0834 16.9167ZM9.1667 15C5.9167 15 3.33337 12.4167 3.33337 9.16666C3.33337 5.91666 5.9167 3.33333 9.1667 3.33333C12.4167 3.33333 15 5.91666 15 9.16666C15 12.4167 12.4167 15 9.1667 15Z" fill="#262B35"/>
</svg>
